# xmcd
#
# Track frame offsets:
#	150
#	27825
#	55776
#	83333
#	109424
#	135787
#	161857
#	189275
#	218237
#	246080
#	270934
#	298216
#	324331
#
# Disc length: 4694 seconds
#
# Revision: 1
# Processed by: cddbd v1.5PL3 Copyright (c) Steve Scherf et al.
# Submitted via: audiograbber 1.81.02
#
DISCID=ab12540d
DTITLE=Arianna Huffington - Pigs at the Trough 5of5
DYEAR=2003
DGENRE=Speech
TTITLE0=Disk5Track01
TTITLE1=Disk5Track02
TTITLE2=Disk5Track03
TTITLE3=Disk5Track04
TTITLE4=Disk5Track05
TTITLE5=Disk5Track06
TTITLE6=Disk5Track07
TTITLE7=Disk5Track08
TTITLE8=Disk5Track09
TTITLE9=Disk5Track10
TTITLE10=Disk5Track11
TTITLE11=Disk5Track12
TTITLE12=Disk5Track13
EXTD=
EXTT0=
EXTT1=
EXTT2=
EXTT3=
EXTT4=
EXTT5=
EXTT6=
EXTT7=
EXTT8=
EXTT9=
EXTT10=
EXTT11=
EXTT12=
PLAYORDER=
